
<svg width="30.000000" height="30.000000" viewBox="0 0 30 30" fill="none" xmlns="http://www.w3.org/2000/svg" xmlns:xlink="http://www.w3.org/1999/xlink">
	<desc>
			Created with Pixso.
	</desc>
	<defs/>
	<path id="Форма 10" d="M15 3.75C8.78 3.75 3.75 8.78 3.75 15C3.75 21.21 8.78 26.25 15 26.25C16.03 26.25 16.87 27.08 16.87 28.12C16.87 29.16 16.03 30 15 30C6.71 30 0 23.28 0 15C0 6.71 6.71 0 15 0C23.28 0 30 6.71 30 15L30 16.87C30 19.98 27.48 22.5 24.37 22.5C22.65 22.5 21.11 21.72 20.08 20.51C18.75 21.74 16.96 22.5 15 22.5C10.85 22.5 7.5 19.14 7.5 15C7.5 10.85 10.85 7.5 15 7.5C16.63 7.5 18.14 8.02 19.37 8.91C19.71 8.61 20.14 8.43 20.62 8.43C21.66 8.43 22.5 9.27 22.5 10.31L22.5 15L22.5 16.87C22.5 17.91 23.33 18.75 24.37 18.75C25.41 18.75 26.25 17.91 26.25 16.87L26.25 15C26.25 8.78 21.21 3.75 15 3.75ZM18.75 15C18.75 14.75 18.72 14.51 18.67 14.26C18.62 14.02 18.55 13.79 18.46 13.56C18.37 13.33 18.25 13.12 18.11 12.91C17.98 12.71 17.82 12.52 17.65 12.34C17.47 12.17 17.28 12.01 17.08 11.88C16.87 11.74 16.66 11.62 16.43 11.53C16.2 11.44 15.97 11.37 15.73 11.32C15.49 11.27 15.24 11.25 15 11.25C14.75 11.25 14.51 11.27 14.26 11.32C14.02 11.37 13.79 11.44 13.56 11.53C13.33 11.62 13.12 11.74 12.91 11.88C12.71 12.01 12.52 12.17 12.34 12.34C12.17 12.52 12.01 12.71 11.88 12.91C11.74 13.12 11.62 13.33 11.53 13.56C11.44 13.79 11.37 14.02 11.32 14.26C11.27 14.51 11.25 14.75 11.25 15C11.25 15.24 11.27 15.49 11.32 15.73C11.37 15.97 11.44 16.2 11.53 16.43C11.62 16.66 11.74 16.87 11.88 17.08C12.01 17.28 12.17 17.47 12.34 17.65C12.52 17.82 12.71 17.98 12.91 18.11C13.12 18.25 13.33 18.37 13.56 18.46C13.79 18.55 14.02 18.62 14.26 18.67C14.51 18.72 14.75 18.75 15 18.75C15.24 18.75 15.49 18.72 15.73 18.67C15.97 18.62 16.2 18.55 16.43 18.46C16.66 18.37 16.87 18.25 17.08 18.11C17.28 17.98 17.47 17.82 17.65 17.65C17.82 17.47 17.98 17.28 18.11 17.08C18.25 16.87 18.37 16.66 18.46 16.43C18.55 16.2 18.62 15.97 18.67 15.73C18.72 15.49 18.75 15.24 18.75 15Z" fill="#BF4960" fill-opacity="1.000000" fill-rule="nonzero"/>
</svg>