<svg width="46.000000" height="39.202393" viewBox="0 0 46 39.2024" fill="none" xmlns="http://www.w3.org/2000/svg" xmlns:xlink="http://www.w3.org/1999/xlink">
	<desc>
			Created with Pixso.
	</desc>
	<defs/>
	<path id="path" d="M20.22 2.68C20.71 1.78 20.34 0.67 19.41 0.2C18.47 -0.27 17.31 0.09 16.82 0.98L9.39 14.7L2.55 14.7C1.14 14.7 0 15.79 0 17.15C0 18.5 1.14 19.6 2.55 19.6L6.7 35.48C7.26 37.67 9.31 39.2 11.65 39.2L34.34 39.2C36.68 39.2 38.73 37.67 39.29 35.48L43.44 19.6C44.85 19.6 46 18.5 46 17.15C46 15.79 44.85 14.7 43.44 14.7L36.6 14.7L29.17 0.98C28.68 0.09 27.52 -0.27 26.58 0.2C25.64 0.67 25.28 1.78 25.77 2.68L32.28 14.7L13.71 14.7L20.22 2.68ZM15.33 23.27L15.33 30.62C15.33 31.3 14.75 31.85 14.05 31.85C13.35 31.85 12.77 31.3 12.77 30.62L12.77 23.27C12.77 22.6 13.35 22.05 14.05 22.05C14.75 22.05 15.33 22.6 15.33 23.27ZM23 22.05C23.7 22.05 24.27 22.6 24.27 23.27L24.27 30.62C24.27 31.3 23.7 31.85 23 31.85C22.29 31.85 21.72 31.3 21.72 30.62L21.72 23.27C21.72 22.6 22.29 22.05 23 22.05ZM33.22 23.27L33.22 30.62C33.22 31.3 32.64 31.85 31.94 31.85C31.24 31.85 30.66 31.3 30.66 30.62L30.66 23.27C30.66 22.6 31.24 22.05 31.94 22.05C32.64 22.05 33.22 22.6 33.22 23.27Z" fill="#828282" fill-opacity="1.000000" fill-rule="nonzero"/>
</svg>
