<svg width="52.420776" height="57.395508" viewBox="0 0 52.4208 57.3955" fill="none" xmlns="http://www.w3.org/2000/svg" xmlns:xlink="http://www.w3.org/1999/xlink">
	<desc>
			Created with Pixso.
	</desc>
	<defs/>
	<path id="Форма 1" d="M49.44 57.27L2.97 57.27C1.4 57.27 0.12 55.86 0.12 54.12L0.12 3.27C0.12 1.53 1.4 0.12 2.97 0.12L49.44 0.12C51.02 0.12 52.29 1.53 52.29 3.27L52.29 54.12C52.29 55.86 51.02 57.27 49.44 57.27Z" fill="#BC354F" fill-opacity="1.000000" fill-rule="nonzero"/>
	<path id="Форма 1" d="M12.48 28.27C12.48 28.27 12.13 29.53 11.25 30.52C10.54 31.31 9.48 31.93 7.98 31.56C8.09 31.56 5.55 29.6 11.06 23.66C11.06 23.66 11.38 18.18 16.06 18.42C16.02 18.26 18.96 14.11 22.78 17.24C22.78 17.32 26.5 12.2 30.07 16.85C30.15 16.97 34.08 14.86 33.79 18.96C33.93 19.2 32.47 27.02 42.73 24.67C42.73 24.63 42.66 28.74 39.65 28.82C39.47 28.86 39.76 33.12 36.58 32.73C36.69 32.93 36.08 36.96 30.79 34.84C30.65 34.88 27.32 38.13 23.71 35.16C23.89 35.27 19.96 39.5 16.63 35.16C16.56 35.39 9.95 39.33 10.45 31.85C10.42 31.84 12.48 28.27 12.48 28.27Z" fill="#F9F9F9" fill-opacity="1.000000" fill-rule="nonzero"/>
	<path id="Форма 1" d="M33.61 17.19C33.61 17.19 34.76 13.64 39.3 13.55C39.27 13.52 43.42 13.67 47.23 19.24C47.28 19.18 51.84 25.45 42.73 24.67C42.73 24.67 33.38 27.34 33.79 18.96C33.79 18.96 33.99 18.36 33.61 17.19Z" fill="#F9F9F9" fill-opacity="1.000000" fill-rule="nonzero"/>
	<path id="Форма 1" d="M42.08 14.37C42.08 14.37 42.99 16.63 40.53 16.89C40.53 16.89 37.23 16.1 36.88 18.36C36.53 20.62 36.81 23.16 42.73 24.67C42.73 24.67 33.27 27.34 33.79 18.96C33.79 18.96 33.88 18.06 33.61 17.19C33.61 17.19 35.43 13.37 39.3 13.55C39.3 13.55 40.87 13.69 42.08 14.37Z" fill="#F9F9F9" fill-opacity="1.000000" fill-rule="nonzero"/>
	<path id="Форма 1" d="M35.79 34.73C35.79 34.73 35.74 39.95 38.43 42.75C38.47 42.7 40.13 44.37 37.86 43.8C37.79 43.74 36.54 43.72 36.04 42.51C35.99 42.55 32.7 38.81 32.07 35.31C32.13 35.39 34.38 35.84 35.79 34.73Z" fill="#F9F9F9" fill-opacity="1.000000" fill-rule="nonzero"/>
	<path id="Форма 1" d="M32.54 37.37C32.54 37.37 31.65 41.51 25.3 44.06C25.31 44.06 23.81 44.62 26.15 41.62C26.14 41.65 28.96 40.98 30.2 35.26C30.2 35.21 30.79 34.84 30.79 34.84L32.07 35.31C32.07 35.31 32.31 37.02 32.54 37.37Z" fill="#F9F9F9" fill-opacity="1.000000" fill-rule="nonzero"/>
	<path id="Форма 1" d="M20.6 37.07C20.6 37.07 20.58 41.42 23.28 43.37C23.28 43.45 25.96 45.25 21.28 44.19C21.22 44.25 20.67 43.86 20.56 43.41C20.55 43.39 16.56 39.48 16.31 35.47C16.35 35.55 16.63 35.16 16.63 35.16C16.63 35.16 18.01 37.35 20.6 37.07Z" fill="#F9F9F9" fill-opacity="1.000000" fill-rule="nonzero"/>
	<path id="Форма 1" d="M13.95 36.33C13.95 36.33 11.16 39.44 13.05 43.8C13.04 43.88 16.36 46.05 12.13 45.01C12.11 45.13 11.2 44.64 11.05 44.15C11.05 44.11 8.46 41.02 10.52 34.41C10.5 34.45 11.16 36.98 13.95 36.33Z" fill="#F9F9F9" fill-opacity="1.000000" fill-rule="nonzero"/>
	<path id="Форма 1" d="M2.97 57.27C1.4 57.27 0.12 55.86 0.12 54.12L0.12 3.27C0.12 1.53 1.4 0.12 2.97 0.12L49.44 0.12C51.02 0.12 52.29 1.53 52.29 3.27L52.29 54.12C52.29 55.86 51.02 57.27 49.44 57.27L2.97 57.27ZM16.63 35.16C16.56 35.39 9.95 39.33 10.45 31.85C10.42 31.84 12.48 28.27 12.48 28.27C12.48 28.27 12.13 29.53 11.25 30.52C10.54 31.31 9.48 31.93 7.98 31.56C8.09 31.56 5.55 29.6 11.06 23.66C11.06 23.66 11.38 18.18 16.06 18.42C16.02 18.26 18.96 14.11 22.78 17.24C22.78 17.32 26.5 12.2 30.07 16.85C30.15 16.97 34.08 14.86 33.79 18.96C33.27 27.34 42.73 24.67 42.73 24.67M33.79 18.96C33.93 19.2 32.47 27.02 42.73 24.67M42.73 24.67C42.73 24.63 42.66 28.74 39.65 28.82C39.47 28.86 39.76 33.12 36.58 32.73C36.69 32.93 36.08 36.96 30.79 34.84M32.07 35.31C32.7 38.81 35.99 42.55 36.04 42.51C36.54 43.72 37.79 43.74 37.86 43.8C40.13 44.37 38.47 42.7 38.43 42.75C35.74 39.95 35.79 34.73 35.79 34.73C34.38 35.84 32.13 35.39 32.07 35.31L30.79 34.84C30.65 34.88 27.32 38.13 23.71 35.16C23.89 35.27 19.96 39.5 16.63 35.16C16.63 35.16 16.35 35.55 16.31 35.47C16.56 39.48 20.55 43.39 20.56 43.41C20.67 43.86 21.22 44.25 21.28 44.19C25.96 45.25 23.28 43.45 23.28 43.37C20.58 41.42 20.6 37.07 20.6 37.07C18.01 37.35 16.63 35.16 16.63 35.16M33.79 18.96C33.79 18.96 33.88 18.06 33.61 17.19C33.61 17.19 34.76 13.64 39.3 13.55M39.3 13.55C39.27 13.52 43.42 13.67 47.23 19.24C47.28 19.18 51.84 25.45 42.73 24.67C36.81 23.16 36.53 20.62 36.88 18.36C37.23 16.1 40.53 16.89 40.53 16.89C42.99 16.63 42.08 14.37 42.08 14.37C40.87 13.69 39.3 13.55 39.3 13.55C35.43 13.37 33.61 17.19 33.61 17.19M42.73 24.67C42.73 24.67 33.38 27.34 33.79 18.96M33.79 18.96C33.79 18.96 33.99 18.36 33.61 17.19M32.07 35.31C32.07 35.31 32.31 37.02 32.54 37.37C32.54 37.37 31.65 41.51 25.3 44.06C25.31 44.06 23.81 44.62 26.15 41.62C26.14 41.65 28.96 40.98 30.2 35.26C30.2 35.21 30.79 34.84 30.79 34.84M13.05 43.8C13.04 43.88 16.36 46.05 12.13 45.01C12.11 45.13 11.2 44.64 11.05 44.15C11.05 44.11 8.46 41.02 10.52 34.41C10.5 34.45 11.16 36.98 13.95 36.33C13.95 36.33 11.16 39.44 13.05 43.8Z" stroke="#000000" stroke-opacity="1.000000" stroke-width="0.250000"/>
</svg>
