<svg width="44.000000" height="33.000000" viewBox="0 0 44 33" fill="none" xmlns="http://www.w3.org/2000/svg" xmlns:xlink="http://www.w3.org/1999/xlink">
	<desc>
			Created with Pixso.
	</desc>
	<defs/>
	<path id="Форма 6" d="M0 2.75C0 1.22 1.4 0 3.14 0L40.85 0C42.59 0 44 1.22 44 2.75C44 4.27 42.59 5.5 40.85 5.5L3.14 5.5C1.4 5.5 0 4.27 0 2.75ZM0 16.5C0 14.97 1.4 13.75 3.14 13.75L40.85 13.75C42.59 13.75 44 14.97 44 16.5C44 18.02 42.59 19.25 40.85 19.25L3.14 19.25C1.4 19.25 0 18.02 0 16.5ZM44 30.25C44 31.77 42.59 33 40.85 33L3.14 33C1.4 33 0 31.77 0 30.25C0 28.72 1.4 27.5 3.14 27.5L40.85 27.5C42.59 27.5 44 28.72 44 30.25Z" fill="#BC354F" fill-opacity="1.000000" fill-rule="nonzero"/>
</svg>
