<svg width="39.998047" height="40.005859" viewBox="0 0 39.998 40.0059" fill="none" xmlns="http://www.w3.org/2000/svg" xmlns:xlink="http://www.w3.org/1999/xlink">
	<desc>
			Created with Pixso.
	</desc>
	<defs/>
	<path id="Форма 17" d="M32.5 16.25C32.5 19.83 31.33 23.14 29.37 25.83L39.26 35.73C40.24 36.71 40.24 38.29 39.26 39.27C38.28 40.25 36.7 40.25 35.72 39.27L25.83 29.37C23.14 31.34 19.83 32.5 16.25 32.5C7.27 32.5 0 25.22 0 16.25C0 7.27 7.27 0 16.25 0C25.22 0 32.5 7.27 32.5 16.25ZM10.62 14.37C9.58 14.37 8.75 15.21 8.75 16.25C8.75 17.28 9.58 18.12 10.62 18.12L21.87 18.12C22.91 18.12 23.75 17.28 23.75 16.25C23.75 15.21 22.91 14.37 21.87 14.37L10.62 14.37Z" fill="#BC354F" fill-opacity="1.000000" fill-rule="nonzero"/>
</svg>
