<svg width="48.000000" height="54.000000" viewBox="0 0 48 54" fill="none" xmlns="http://www.w3.org/2000/svg" xmlns:xlink="http://www.w3.org/1999/xlink">
	<desc>
			Created with Pixso.
	</desc>
	<defs>
		<clipPath id="clip49_5">
			<rect id="paperclip-solid" width="48.000000" height="54.000000" fill="white" fill-opacity="0"/>
		</clipPath>
	</defs>
	<g clip-path="url(#clip49_5)">
		<path id="path" d="M39.02 8.83C36.4 6.26 32.16 6.26 29.55 8.83L9.83 28.24C5.32 32.68 5.32 39.87 9.83 44.31C14.34 48.75 21.65 48.75 26.16 44.31L42.45 28.28C43.61 27.13 45.52 27.13 46.69 28.28C47.86 29.43 47.86 31.31 46.69 32.46L30.4 48.49C23.55 55.24 12.45 55.24 5.59 48.49C-1.27 41.74 -1.27 30.81 5.59 24.06L25.3 4.66C30.26 -0.23 38.3 -0.23 43.26 4.66C48.22 9.54 48.22 17.45 43.26 22.33L24.4 40.9C21.34 43.91 16.37 43.91 13.3 40.9C10.24 37.88 10.24 32.99 13.3 29.97L28.73 14.78C29.9 13.63 31.81 13.63 32.97 14.78C34.14 15.93 34.14 17.81 32.97 18.96L17.55 34.15C16.83 34.85 16.83 36.01 17.55 36.72C18.26 37.43 19.44 37.43 20.16 36.72L39.02 18.16C41.63 15.58 41.63 11.41 39.02 8.83Z" fill="#BC354F" fill-opacity="1.000000" fill-rule="nonzero"/>
	</g>
</svg>
