<svg width="13.000488" height="13.000488" viewBox="0 0 13.0005 13.0005" fill="none" xmlns="http://www.w3.org/2000/svg" xmlns:xlink="http://www.w3.org/1999/xlink">
	<desc>
			Created with Pixso.
	</desc>
	<defs/>
	<path id="Форма 8" d="M4.18 0.62C3.99 0.15 3.47 -0.1 2.98 0.03L0.74 0.64C0.3 0.76 0 1.16 0 1.62C0 7.9 5.09 13 11.37 13C11.83 13 12.23 12.69 12.35 12.25L12.96 10.01C13.09 9.52 12.84 9 12.37 8.81L9.93 7.79C9.52 7.62 9.04 7.74 8.76 8.09L7.73 9.34C5.94 8.49 4.5 7.05 3.65 5.26L4.9 4.24C5.25 3.95 5.37 3.47 5.2 3.06L4.18 0.62Z" fill="#404040" fill-opacity="1.000000" fill-rule="nonzero"/>
</svg>
