<svg width="39.998047" height="40.005859" viewBox="0 0 39.998 40.0059" fill="none" xmlns="http://www.w3.org/2000/svg" xmlns:xlink="http://www.w3.org/1999/xlink">
	<desc>
			Created with Pixso.
	</desc>
	<defs/>
	<path id="Форма 16" d="M32.5 16.25C32.5 19.83 31.33 23.14 29.37 25.83L39.26 35.73C40.24 36.71 40.24 38.29 39.26 39.27C38.28 40.25 36.7 40.25 35.72 39.27L25.83 29.37C23.14 31.34 19.83 32.5 16.25 32.5C7.27 32.5 0 25.22 0 16.25C0 7.27 7.27 0 16.25 0C25.22 0 32.5 7.27 32.5 16.25ZM14.37 23.12C14.37 24.16 15.21 25 16.25 25C17.28 25 18.12 24.16 18.12 23.12L18.12 18.12L23.12 18.12C24.16 18.12 25 17.28 25 16.25C25 15.21 24.16 14.37 23.12 14.37L18.12 14.37L18.12 9.37C18.12 8.33 17.28 7.5 16.25 7.5C15.21 7.5 14.37 8.33 14.37 9.37L14.37 14.37L9.37 14.37C8.33 14.37 7.5 15.21 7.5 16.25C7.5 17.28 8.33 18.12 9.37 18.12L14.37 18.12L14.37 23.12Z" fill="#BC354F" fill-opacity="1.000000" fill-rule="nonzero"/>
</svg>
