<svg width="45.000000" height="45.263550" viewBox="0 0 45 45.2635" fill="none" xmlns="http://www.w3.org/2000/svg" xmlns:xlink="http://www.w3.org/1999/xlink">
	<desc>
			Created with Pixso.
	</desc>
	<defs/>
	<path id="Форма 2" d="M35.72 35.32C34.04 31.19 30.01 28.28 25.31 28.28L19.68 28.28C14.98 28.28 10.95 31.19 9.27 35.32C6.14 32.02 4.21 27.55 4.21 22.63C4.21 12.47 12.4 4.24 22.5 4.24C32.59 4.24 40.78 12.47 40.78 22.63C40.78 27.55 38.85 32.02 35.72 35.32ZM32.2 38.21C29.39 39.99 26.06 41.02 22.5 41.02C18.93 41.02 15.6 39.99 12.78 38.21C13.42 34.97 16.27 32.53 19.68 32.53L25.31 32.53C28.72 32.53 31.57 34.97 32.21 38.21L32.2 38.21ZM22.5 45.26C23.23 45.26 23.97 45.22 24.7 45.15C25.43 45.08 26.16 44.97 26.88 44.82C27.61 44.68 28.32 44.5 29.03 44.28C29.73 44.07 30.42 43.82 31.11 43.54C31.79 43.25 32.45 42.94 33.1 42.59C33.75 42.24 34.38 41.86 35 41.44C35.61 41.03 36.2 40.59 36.77 40.12C37.34 39.65 37.88 39.15 38.4 38.63C38.93 38.11 39.42 37.56 39.89 36.98C40.36 36.41 40.79 35.82 41.2 35.2C41.61 34.58 41.99 33.95 42.34 33.3C42.69 32.64 43 31.97 43.28 31.29C43.56 30.6 43.81 29.91 44.03 29.2C44.24 28.49 44.42 27.77 44.56 27.04C44.71 26.32 44.81 25.58 44.89 24.85C44.96 24.11 45 23.37 45 22.63C45 21.89 44.96 21.15 44.89 20.41C44.81 19.67 44.71 18.94 44.56 18.21C44.42 17.48 44.24 16.77 44.03 16.06C43.81 15.35 43.56 14.65 43.28 13.97C43 13.28 42.69 12.61 42.34 11.96C41.99 11.3 41.61 10.67 41.2 10.05C40.79 9.44 40.36 8.84 39.89 8.27C39.42 7.7 38.93 7.15 38.4 6.62C37.88 6.1 37.34 5.6 36.77 5.13C36.2 4.66 35.61 4.22 35 3.81C34.38 3.4 33.75 3.02 33.1 2.67C32.45 2.32 31.79 2 31.11 1.72C30.42 1.43 29.73 1.18 29.03 0.97C28.32 0.75 27.61 0.57 26.88 0.43C26.16 0.29 25.43 0.18 24.7 0.1C23.97 0.03 23.23 0 22.5 0C21.76 0 21.02 0.03 20.29 0.1C19.56 0.18 18.83 0.29 18.11 0.43C17.38 0.57 16.67 0.75 15.96 0.97C15.26 1.18 14.57 1.43 13.88 1.72C13.2 2 12.54 2.32 11.89 2.67C11.24 3.02 10.61 3.4 9.99 3.81C9.38 4.22 8.79 4.66 8.22 5.13C7.65 5.6 7.11 6.1 6.59 6.62C6.06 7.15 5.57 7.7 5.1 8.27C4.63 8.84 4.2 9.44 3.79 10.05C3.38 10.67 3 11.3 2.65 11.96C2.3 12.61 1.99 13.28 1.71 13.97C1.43 14.65 1.18 15.35 0.96 16.06C0.75 16.77 0.57 17.48 0.43 18.21C0.28 18.94 0.18 19.67 0.1 20.41C0.03 21.15 0 21.89 0 22.63C0 23.37 0.03 24.11 0.1 24.85C0.18 25.58 0.28 26.32 0.43 27.04C0.57 27.77 0.75 28.49 0.96 29.2C1.18 29.91 1.43 30.6 1.71 31.29C1.99 31.97 2.3 32.64 2.65 33.3C3 33.95 3.38 34.58 3.79 35.2C4.2 35.82 4.63 36.41 5.1 36.98C5.57 37.56 6.06 38.11 6.59 38.63C7.11 39.15 7.65 39.65 8.22 40.12C8.79 40.59 9.38 41.03 9.99 41.44C10.61 41.86 11.24 42.24 11.89 42.59C12.54 42.94 13.2 43.25 13.88 43.54C14.57 43.82 15.26 44.07 15.96 44.28C16.67 44.5 17.38 44.68 18.11 44.82C18.83 44.97 19.56 45.08 20.29 45.15C21.02 45.22 21.76 45.26 22.5 45.26ZM22.5 21.21C22.26 21.21 22.04 21.19 21.81 21.14C21.58 21.1 21.36 21.03 21.15 20.94C20.94 20.85 20.73 20.75 20.54 20.62C20.35 20.49 20.17 20.34 20.01 20.18C19.85 20.01 19.7 19.83 19.57 19.64C19.44 19.45 19.34 19.24 19.25 19.03C19.16 18.81 19.09 18.59 19.05 18.37C19 18.14 18.98 17.91 18.98 17.68C18.98 17.44 19 17.21 19.05 16.99C19.09 16.76 19.16 16.54 19.25 16.32C19.34 16.11 19.44 15.9 19.57 15.71C19.7 15.52 19.85 15.34 20.01 15.18C20.17 15.01 20.35 14.86 20.54 14.74C20.73 14.61 20.94 14.5 21.15 14.41C21.36 14.32 21.58 14.25 21.81 14.21C22.04 14.16 22.26 14.14 22.5 14.14C22.73 14.14 22.95 14.16 23.18 14.21C23.41 14.25 23.63 14.32 23.84 14.41C24.05 14.5 24.26 14.61 24.45 14.74C24.64 14.86 24.82 15.01 24.98 15.18C25.14 15.34 25.29 15.52 25.42 15.71C25.55 15.9 25.65 16.11 25.74 16.32C25.83 16.54 25.9 16.76 25.94 16.99C25.99 17.21 26.01 17.44 26.01 17.68C26.01 17.91 25.99 18.14 25.94 18.37C25.9 18.59 25.83 18.81 25.74 19.03C25.65 19.24 25.55 19.45 25.42 19.64C25.29 19.83 25.14 20.01 24.98 20.18C24.82 20.34 24.64 20.49 24.45 20.62C24.26 20.75 24.05 20.85 23.84 20.94C23.63 21.03 23.41 21.1 23.18 21.14C22.95 21.19 22.73 21.21 22.5 21.21ZM14.76 17.68C14.76 17.93 14.77 18.19 14.8 18.44C14.82 18.69 14.86 18.94 14.91 19.19C14.96 19.44 15.02 19.69 15.09 19.93C15.17 20.18 15.25 20.42 15.35 20.65C15.45 20.89 15.55 21.12 15.67 21.34C15.79 21.57 15.92 21.79 16.06 22C16.2 22.21 16.36 22.41 16.52 22.61C16.68 22.81 16.85 23 17.03 23.18C17.21 23.36 17.39 23.53 17.59 23.69C17.78 23.85 17.99 24 18.2 24.14C18.41 24.29 18.63 24.42 18.85 24.54C19.07 24.66 19.3 24.77 19.54 24.86C19.77 24.96 20.01 25.05 20.25 25.12C20.49 25.19 20.74 25.26 20.99 25.31C21.23 25.36 21.48 25.39 21.74 25.42C21.99 25.44 22.24 25.46 22.5 25.46C22.75 25.46 23 25.44 23.25 25.42C23.51 25.39 23.76 25.36 24 25.31C24.25 25.26 24.5 25.19 24.74 25.12C24.98 25.05 25.22 24.96 25.45 24.86C25.69 24.77 25.92 24.66 26.14 24.54C26.36 24.42 26.58 24.29 26.79 24.14C27 24 27.21 23.85 27.4 23.69C27.6 23.53 27.78 23.36 27.96 23.18C28.14 23 28.31 22.81 28.47 22.61C28.63 22.41 28.79 22.21 28.93 22C29.07 21.79 29.2 21.57 29.32 21.34C29.44 21.12 29.54 20.89 29.64 20.65C29.74 20.42 29.82 20.18 29.9 19.93C29.97 19.69 30.03 19.44 30.08 19.19C30.13 18.94 30.17 18.69 30.19 18.44C30.22 18.19 30.23 17.93 30.23 17.68C30.23 17.42 30.22 17.17 30.19 16.91C30.17 16.66 30.13 16.41 30.08 16.16C30.03 15.91 29.97 15.66 29.9 15.42C29.82 15.17 29.74 14.93 29.64 14.7C29.54 14.46 29.44 14.23 29.32 14.01C29.2 13.78 29.07 13.57 28.93 13.35C28.79 13.14 28.63 12.94 28.47 12.74C28.31 12.54 28.14 12.36 27.96 12.18C27.78 11.99 27.6 11.82 27.4 11.66C27.21 11.5 27 11.35 26.79 11.21C26.58 11.07 26.36 10.94 26.14 10.82C25.92 10.69 25.69 10.59 25.45 10.49C25.22 10.39 24.98 10.31 24.74 10.23C24.5 10.16 24.25 10.1 24 10.05C23.76 10 23.51 9.96 23.25 9.93C23 9.91 22.75 9.9 22.5 9.9C22.24 9.9 21.99 9.91 21.74 9.93C21.48 9.96 21.23 10 20.99 10.05C20.74 10.1 20.49 10.16 20.25 10.23C20.01 10.31 19.77 10.39 19.54 10.49C19.3 10.59 19.07 10.69 18.85 10.82C18.63 10.94 18.41 11.07 18.2 11.21C17.99 11.35 17.78 11.5 17.59 11.66C17.39 11.82 17.21 11.99 17.03 12.18C16.85 12.36 16.68 12.54 16.52 12.74C16.36 12.94 16.2 13.14 16.06 13.35C15.92 13.57 15.79 13.78 15.67 14.01C15.55 14.23 15.45 14.46 15.35 14.7C15.25 14.93 15.17 15.17 15.09 15.42C15.02 15.66 14.96 15.91 14.91 16.16C14.86 16.41 14.82 16.66 14.8 16.91C14.77 17.17 14.76 17.42 14.76 17.68Z" fill="#BF4960" fill-opacity="1.000000" fill-rule="nonzero"/>
</svg>
