<svg width="31.000000" height="31.789673" viewBox="0 0 31 31.7897" fill="none" xmlns="http://www.w3.org/2000/svg" xmlns:xlink="http://www.w3.org/1999/xlink">
	<desc>
			Created with Pixso.
	</desc>
	<defs/>
	<path id="Форма 4" d="M25.18 12.91C25.18 15.76 24.28 18.39 22.76 20.52L30.43 28.39C31.18 29.17 31.18 30.43 30.43 31.2C29.67 31.98 28.44 31.98 27.68 31.2L20.02 23.34C17.94 24.9 15.37 25.82 12.59 25.82C5.63 25.82 0 20.04 0 12.91C0 5.77 5.63 0 12.59 0C19.55 0 25.18 5.77 25.18 12.91ZM12.59 21.85C12.87 21.85 13.16 21.83 13.44 21.8C13.73 21.78 14.01 21.73 14.29 21.68C14.57 21.62 14.85 21.55 15.12 21.46C15.39 21.38 15.66 21.28 15.93 21.17C16.19 21.05 16.45 20.93 16.7 20.79C16.95 20.65 17.2 20.5 17.43 20.34C17.67 20.18 17.9 20 18.12 19.82C18.34 19.63 18.55 19.44 18.75 19.23C18.96 19.02 19.15 18.81 19.33 18.58C19.51 18.35 19.68 18.12 19.84 17.87C20 17.63 20.14 17.38 20.28 17.12C20.41 16.86 20.54 16.6 20.64 16.33C20.75 16.06 20.85 15.78 20.93 15.5C21.02 15.22 21.09 14.94 21.14 14.65C21.2 14.36 21.24 14.08 21.27 13.78C21.29 13.49 21.31 13.2 21.31 12.91C21.31 12.61 21.29 12.32 21.27 12.03C21.24 11.74 21.2 11.45 21.14 11.16C21.09 10.88 21.02 10.59 20.93 10.31C20.85 10.03 20.75 9.76 20.64 9.49C20.54 9.22 20.41 8.95 20.28 8.69C20.14 8.44 20 8.18 19.84 7.94C19.68 7.7 19.51 7.46 19.33 7.24C19.15 7.01 18.96 6.79 18.75 6.59C18.55 6.38 18.34 6.18 18.12 6C17.9 5.81 17.67 5.64 17.43 5.47C17.2 5.31 16.95 5.16 16.7 5.02C16.45 4.89 16.19 4.76 15.93 4.65C15.66 4.54 15.39 4.44 15.12 4.35C14.85 4.27 14.57 4.2 14.29 4.14C14.01 4.08 13.73 4.04 13.44 4.01C13.16 3.98 12.87 3.97 12.59 3.97C12.3 3.97 12.02 3.98 11.73 4.01C11.45 4.04 11.17 4.08 10.89 4.14C10.61 4.2 10.33 4.27 10.06 4.35C9.79 4.44 9.52 4.54 9.25 4.65C8.99 4.76 8.73 4.89 8.48 5.02C8.23 5.16 7.98 5.31 7.75 5.47C7.51 5.64 7.28 5.81 7.06 6C6.84 6.18 6.63 6.38 6.42 6.59C6.22 6.79 6.03 7.01 5.85 7.24C5.67 7.46 5.5 7.7 5.34 7.94C5.18 8.18 5.03 8.44 4.9 8.69C4.77 8.95 4.64 9.22 4.53 9.49C4.42 9.76 4.33 10.03 4.25 10.31C4.16 10.59 4.09 10.88 4.04 11.16C3.98 11.45 3.94 11.74 3.91 12.03C3.88 12.32 3.87 12.61 3.87 12.91C3.87 13.2 3.88 13.49 3.91 13.78C3.94 14.08 3.98 14.36 4.04 14.65C4.09 14.94 4.16 15.22 4.25 15.5C4.33 15.78 4.42 16.06 4.53 16.33C4.64 16.6 4.77 16.86 4.9 17.12C5.03 17.38 5.18 17.63 5.34 17.87C5.5 18.12 5.67 18.35 5.85 18.58C6.03 18.81 6.22 19.02 6.42 19.23C6.63 19.44 6.84 19.63 7.06 19.82C7.28 20 7.51 20.18 7.75 20.34C7.98 20.5 8.23 20.65 8.48 20.79C8.73 20.93 8.99 21.05 9.25 21.17C9.52 21.28 9.79 21.38 10.06 21.46C10.33 21.55 10.61 21.62 10.89 21.68C11.17 21.73 11.45 21.78 11.73 21.8C12.02 21.83 12.3 21.85 12.59 21.85Z" fill="#BB6475" fill-opacity="1.000000" fill-rule="nonzero"/>
</svg>
