<svg width="30.000000" height="30.000000" viewBox="0 0 30 30" fill="none" xmlns="http://www.w3.org/2000/svg" xmlns:xlink="http://www.w3.org/1999/xlink">
	<desc>
			Created with Pixso.
	</desc>
	<defs/>
	<path id="Форма 9" d="M25.5 4.35C22.7 1.54 18.96 0 14.99 0C6.79 0 0.12 6.66 0.12 14.86C0.12 17.48 0.81 20.04 2.1 22.29L0 30L7.88 27.93C10.05 29.11 12.49 29.73 14.98 29.73L14.99 29.73C23.18 29.73 30 23.06 30 14.87C30 10.9 28.31 7.17 25.5 4.35ZM14.99 27.23C12.77 27.23 10.59 26.63 8.69 25.51L8.25 25.24L3.57 26.47L4.82 21.91L4.52 21.44C3.28 19.47 2.63 17.2 2.63 14.86C2.63 8.05 8.18 2.51 15 2.51C18.3 2.51 21.4 3.79 23.73 6.13C26.06 8.47 27.49 11.57 27.48 14.87C27.48 21.68 21.8 27.23 14.99 27.23ZM21.77 17.98C21.4 17.79 19.57 16.89 19.23 16.77C18.89 16.64 18.64 16.58 18.39 16.96C18.14 17.33 17.43 18.16 17.21 18.42C17 18.66 16.78 18.7 16.41 18.51C14.23 17.42 12.79 16.56 11.35 14.09C10.97 13.43 11.73 13.48 12.44 12.06C12.56 11.81 12.5 11.6 12.41 11.41C12.32 11.23 11.57 9.4 11.27 8.65C10.96 7.93 10.66 8.03 10.43 8.02C10.21 8 9.97 8 9.72 8C9.47 8 9.07 8.1 8.73 8.47C8.39 8.84 7.43 9.74 7.43 11.57C7.43 13.39 8.76 15.16 8.94 15.41C9.13 15.66 11.56 19.41 15.29 21.02C17.65 22.04 18.57 22.13 19.75 21.95C20.47 21.85 21.95 21.06 22.25 20.18C22.56 19.31 22.56 18.57 22.47 18.42C22.38 18.25 22.13 18.16 21.77 17.98Z" fill="#404040" fill-opacity="1.000000" fill-rule="nonzero"/>
</svg>
